{"title":"Life Plus DVD Magazine Disc 04","uid":7169320,"size":706303126,"categoryP":"video","categoryS":"other","magnet":"?xt=urn:btih:75332fd2c522fdb431683ee658e2426346e49313&amp;dn=Life+Plus+DVD+Magazine+Disc+04&amp;tr=udp%3A%2F%2Ftracker.openbittorrent.com%3A80&amp;tr=udp%3A%2F%2Fopen.demonii.com%3A1337&amp;tr=udp%3A%2F%2Ftracker.coppersurfer.tk%3A6969&amp;tr=udp%3A%2F%2Fexodus.desync.com%3A6969","seeders":0,"leechers":1,"uploader":"gtxSeries","files":-1,"time":1333902195,"description":"Life+ DVD Magazine Disc #4\n\nThought someone interested in the sports might be interested in this.\n(Though it isn't a recent release...)\n( http://en.wikipedia.org/wiki/Aggressive_inline_skating )\n\n---MediaInfo---\n\n\nGeneral\nComplete name                            : D:TorrentLifePlus.Issue4.DVDRip.DivX.MP3.ENG-gtxSeries.avi\nFormat                                   : AVI\nFormat/Info                              : Audio Video Interleave\nFile size                                : 674 MiB\nDuration                                 : 44mn 30s\nOverall bit rate                         : 2 116 Kbps\n\nVideo\nID                                       : 0\nFormat                                   : MPEG-4 Visual\nFormat profile                           : Advanced Simple@L1\nFormat settings, BVOP                    : 2\nFormat settings, QPel                    : No\nFormat settings, GMC                     : No warppoints\nFormat settings, Matrix                  : Default (H.263)\nCodec ID                                 : DIVX\nCodec ID/Info                            : Project Mayo\nCodec ID/Hint                            : DivX 4\nDuration                                 : 44mn 30s\nBit rate                                 : 1 913 Kbps\nWidth                                    : 640 pixels\nHeight                                   : 480 pixels\nDisplay aspect ratio                     : 4:3\nFrame rate                               : 29.970 fps\nColor space                              : YUV\nChroma subsampling                       : 4:2:0\nBit depth                                : 8 bits\nScan type                                : Progressive\nCompression mode                         : Lossy\nBits/(Pixel*Frame)                       : 0.208\nStream size                              : 609 MiB (90%)\nWriting library                          : Lavc53.7.0\n\nAudio\nID                                       : 1\nFormat                                   : MPEG Audio\nFormat version                           : Version 1\nFormat profile                           : Layer 3\nCodec ID                                 : 55\nCodec ID/Hint                            : MP3\nDuration                                 : 44mn 30s\nBit rate mode                            : Constant\nBit rate                                 : 192 Kbps\nChannel(s)                               : 2 channels\nSampling rate                            : 48.0 KHz\nCompression mode                         : Lossy\nStream size                              : 61.1 MiB (9%)\nAlignment                                : Aligned on interleaves\nInterleave, duration                     : 24 ms (0.72 video frame)\nWriting library                          : LAME3.99.5\n\n","torrent":{"xt":"urn:btih:75332fd2c522fdb431683ee658e2426346e49313","amp;dn":"Life+Plus+DVD+Magazine+Disc+04","amp;tr":["udp%3A%2F%2Ftracker.openbittorrent.com%3A80","udp%3A%2F%2Fopen.demonii.com%3A1337","udp%3A%2F%2Ftracker.coppersurfer.tk%3A6969","udp%3A%2F%2Fexodus.desync.com%3A6969"],"infoHash":"75332fd2c522fdb431683ee658e2426346e49313","infoHashBuffer":{"type":"Buffer","data":[117,51,47,210,197,34,253,180,49,104,62,230,88,226,66,99,70,228,147,19]},"announce":[],"urlList":[]}}